

<!-- Uploaded to: SVG Repo, www.svgrepo.com, Transformed by: SVG Repo Mixer Tools -->
<svg version="1.1" id="_x34_" xmlns="http://www.w3.org/2000/svg" xmlns:xlink="http://www.w3.org/1999/xlink" viewBox="0 0 512 512" xml:space="preserve" fill="#000000">

<g id="SVGRepo_bgCarrier" stroke-width="0"/>

<g id="SVGRepo_tracerCarrier" stroke-linecap="round" stroke-linejoin="round"/>

<g id="SVGRepo_iconCarrier"> <g> <path style="fill:#3F4045;" d="M454.906,284.481c0,125.619-101.761,227.453-227.453,227.453 c-45.025,0-86.995-13.093-122.346-35.715c-0.073,0-0.146-0.073-0.218-0.146c-13.893-8.874-26.695-19.203-38.26-30.768 c-1.309-1.31-2.546-2.618-3.782-3.928c-8.801-9.165-16.803-19.13-23.931-29.677c0-0.073,0-0.073-0.073-0.073 c-1.018-1.527-2.036-3.055-2.982-4.583c-0.073-0.073-0.146-0.146-0.146-0.218c-0.946-1.383-1.819-2.837-2.691-4.364l-0.073-0.073 c-5.673-9.311-10.765-19.13-14.984-29.314l-0.073-0.073c-1.382-3.346-2.764-6.764-4.001-10.255 c-0.654-1.746-1.309-3.491-1.891-5.237c-0.364-1.237-0.8-2.474-1.164-3.637c-0.873-2.765-1.746-5.528-2.473-8.293 c-1.382-4.582-2.473-9.31-3.418-14.038c-0.146-0.727-0.291-1.454-0.436-2.11C1.527,314.885,0,299.901,0,284.481 c0-62.846,25.531-119.727,66.701-160.826c41.17-41.169,97.979-66.628,160.825-66.628c2.473,0,5.019,0.073,7.492,0.146 c2.546,0.073,5.019,0.146,7.492,0.364c2.473,0.145,4.946,0.363,7.42,0.581c0.291,0,0.582,0.073,0.873,0.073 c2.182,0.218,4.365,0.51,6.547,0.801c1.818,0.218,3.637,0.509,5.455,0.8c1.673,0.218,3.346,0.509,5.019,0.8 c16.803,2.982,32.95,7.856,48.298,14.402c3.346,1.382,6.692,2.91,9.966,4.51c0.072,0,0.145,0,0.218,0.073 c3.273,1.528,6.474,3.201,9.602,4.947c3.128,1.6,6.11,3.346,9.092,5.164c0.146,0.073,0.291,0.218,0.436,0.291 c2.618,1.6,5.237,3.273,7.783,4.946c10.547,6.983,20.439,14.839,29.605,23.422c0.654,0.51,1.237,1.164,1.891,1.673 c1.018,1.092,2.109,2.11,3.201,3.274c0.145,0.073,0.291,0.218,0.436,0.363c1.164,1.165,2.4,2.401,3.564,3.637 c0.582,0.582,1.164,1.237,1.818,1.818c9.674,10.402,18.475,21.749,26.113,33.897c2.691,4.363,5.31,8.728,7.71,13.238 C445.014,208.469,454.906,245.348,454.906,284.481z"/> <path style="fill:#FDFCF5;" d="M227.493,468.215c-101.3,0-183.713-82.413-183.713-183.713c0-101.3,82.413-183.713,183.713-183.713 s183.713,82.413,183.713,183.713C411.206,385.802,328.792,468.215,227.493,468.215z"/> <path style="fill:#086788;" d="M227.493,424.474c-77.181,0-139.972-62.791-139.972-139.972 c0-77.181,62.791-139.972,139.972-139.972s139.972,62.791,139.972,139.972C367.465,361.683,304.674,424.474,227.493,424.474z"/> <path style="fill:#a52422;" d="M227.493,380.733c-53.062,0-96.231-43.169-96.231-96.231c0-53.062,43.169-96.231,96.231-96.231 c53.062,0,96.231,43.169,96.231,96.231C323.723,337.564,280.555,380.733,227.493,380.733z"/> <path style="fill:#fdca40;" d="M227.493,336.991c-28.943,0-52.489-23.547-52.489-52.49c0-28.943,23.546-52.489,52.489-52.489 c28.943,0,52.489,23.547,52.489,52.489C279.982,313.445,256.436,336.991,227.493,336.991z"/> <path style="opacity:0.1;fill:#FFFFFF;" d="M388.351,123.655l-92.814,92.814l-30.987,30.914l-40.152,40.152l-0.218,0.291 l-64.665,64.665l-30.987,30.914l-30.841,30.914l-27.277,27.204l-3.783,3.783c-1.309-1.31-2.546-2.618-3.782-3.928 c-8.801-9.237-16.803-19.13-23.931-29.677c0-0.073,0-0.073-0.073-0.073c-0.946-1.527-1.964-2.983-2.836-4.51 c-1.091-1.528-2.037-3.055-2.982-4.655l-0.073-0.073c-5.673-9.383-10.692-19.13-14.984-29.314l-0.073-0.073 c-1.382-3.346-2.764-6.764-4.001-10.255c-0.654-1.746-1.309-3.491-1.891-5.237c-0.364-1.237-0.8-2.474-1.164-3.637 c-0.873-2.765-1.746-5.528-2.473-8.293c-1.309-4.655-2.473-9.31-3.418-14.038c-0.146-0.727-0.291-1.454-0.436-2.11 c-2.91-14.548-4.437-29.604-4.437-44.952c0-62.846,25.458-119.654,66.628-160.826c41.17-41.169,97.979-66.628,160.825-66.628 c2.473,0,5.019,0.073,7.492,0.146c2.546,0.073,5.019,0.146,7.492,0.364c2.473,0.145,4.946,0.363,7.42,0.581 c0.291,0,0.582,0.073,0.873,0.073c2.182,0.218,4.365,0.51,6.547,0.801c1.818,0.218,3.637,0.509,5.455,0.8 c1.673,0.218,3.346,0.509,5.019,0.8c16.803,2.982,32.95,7.856,48.298,14.402c3.346,1.382,6.692,2.91,9.966,4.51 c0.072,0,0.145,0,0.218,0.073c3.273,1.528,6.474,3.201,9.602,4.947c3.128,1.6,6.11,3.346,9.092,5.164 c0.146,0.073,0.291,0.218,0.436,0.291c2.618,1.6,5.237,3.273,7.783,4.946c10.547,6.983,20.439,14.839,29.605,23.422 c0.582,0.51,1.237,1.091,1.819,1.746c1.091,1.019,2.182,2.037,3.273,3.201C388.059,123.365,388.205,123.511,388.351,123.655z"/> <path style="opacity:0.1;fill:#040000;" d="M427.59,176.266L234.484,290.249c-1.763,1.048-3.808,1.329-5.801,0.818 c-1.993-0.511-3.655-1.763-4.702-3.527c-2.147-3.629-0.92-8.357,2.709-10.504l193.132-114.008 C422.555,167.347,425.137,171.743,427.59,176.266z"/> <g> <g> <polygon style="fill:#B55A6D;" points="467.199,44.808 406.68,105.326 405.153,99.579 404.425,96.743 394.897,60.519 451.778,3.564 455.342,0 457.889,9.675 464.944,36.224 465.671,39.061 "/> </g> <g> <polygon style="fill:#B55A6D;" points="406.656,105.338 451.491,117.127 512,56.618 467.165,44.829 "/> </g> <g> <path style="fill:#E0D5B8;" d="M477.164,45.68L233.49,289.354c-0.946,0.947-2.036,1.6-3.273,1.891 c-0.727,0.291-1.454,0.364-2.182,0.364c-2.036,0-4-0.8-5.382-2.255c-3.055-2.982-3.055-7.855-0.073-10.838l98.27-98.27 l30.914-30.841l31.059-31.059l21.603-21.603l60.519-60.518l1.382-1.382c1.382-1.454,3.346-2.254,5.383-2.254 c2.037,0,4,0.8,5.455,2.254C480.146,37.825,480.146,42.698,477.164,45.68z"/> <path style="fill:#E0D5B8;" d="M224.426,287.569c-1.996-1.996-1.996-5.233,0-7.228L468.099,36.667 c1.996-1.996,5.233-1.996,7.228,0c1.996,1.996,1.996,5.233,0,7.229L231.655,287.569 C229.659,289.565,226.422,289.565,224.426,287.569z"/> </g> </g> </g> </g>

</svg>