<svg width="57" height="58" viewBox="0 0 57 58" fill="none" xmlns="http://www.w3.org/2000/svg">
<g clip-path="url(#clip0_1605_147)">
<path d="M16.7033 48.2137C16.9016 48.7478 17.0962 49.3134 17.2897 49.9047L34.8331 44.979L33.3806 43.5276L16.7033 48.2137Z" fill="#086788"/>
<path d="M43.0178 33.7236L44.468 35.1738L49.3303 17.8639C48.7185 17.6657 48.1613 17.471 47.6358 17.2812L43.0178 33.7236Z" fill="#086788"/>
<path d="M12.1803 14.8858C12.5065 14.5161 12.8434 14.1548 13.1888 13.8008C13.6048 13.392 14.0356 13.0016 14.4735 12.622L9.35077 7.49922L13.3859 5.86537C13.7167 5.73411 13.9285 5.40792 13.9114 5.05279C13.8956 4.69999 13.6585 4.39094 13.319 4.2864L1.16103 0.536983C0.86178 0.445805 0.539374 0.526073 0.319278 0.74628C0.0990714 0.966487 0.0175793 1.29001 0.111206 1.58803L3.8594 13.746C3.96283 14.0865 4.26931 14.3226 4.62445 14.3384C4.97981 14.353 5.30578 14.145 5.43959 13.8178L7.07333 9.77777L12.1803 14.8858Z" fill="#086788"/>
<path d="M37.8379 35.9865L21.1971 19.3457C20.865 19.6377 20.5415 19.9394 20.2251 20.2533L19.9721 20.5124L19.6704 20.8081C19.409 21.0721 19.156 21.3409 18.9089 21.6133L35.5582 38.265L35.1178 42.7333L41.9692 49.5848L42.8293 43.2576L49.1588 42.3964L42.3062 35.5462L37.8379 35.9865Z" fill="#086788"/>
<path d="M55.7646 10.021C54.2148 8.47 51.6917 8.47 50.1419 10.021C49.8415 10.3203 49.5944 10.6608 49.4047 11.038C48.6274 10.9929 47.5397 10.5416 46.839 10.2509L45.7113 9.8301C45.3123 9.67669 44.8865 9.5235 44.4802 9.38601C40.9912 8.21206 37.529 7.5698 34.1908 7.47373C30.529 7.35817 26.8673 7.94687 23.6071 9.17805C20.3005 10.4067 17.1437 12.4347 14.4686 15.0502C11.8603 17.7168 9.83369 20.8749 8.60496 24.1766C7.37378 27.4417 6.78508 31.1035 6.89942 34.7627C6.99438 38.1032 7.63908 41.5654 8.81292 45.0557C8.95053 45.4596 9.10371 45.8853 9.25456 46.2807L9.68518 47.4327C9.96873 48.1153 10.4201 49.2003 10.465 49.9788C10.088 50.1686 9.74596 50.4156 9.44683 50.7149C7.89703 52.2647 7.89703 54.7877 9.44683 56.3375C10.9966 57.8874 13.5197 57.8874 15.0696 56.3375C15.8943 55.5128 16.3115 54.384 16.2228 53.2232L16.2277 53.1966L16.218 53.104C16.184 52.7744 16.1267 52.486 16.0732 52.233C15.9905 51.8071 15.8798 51.4289 15.7739 51.0638L15.6851 50.7585C15.403 49.8584 15.0975 49.0117 14.8056 48.2234L13.4638 44.6978C13.33 44.3354 13.2119 43.9936 13.0915 43.6236C12.111 40.6797 11.6633 37.6979 11.7557 34.7637C11.8554 31.7941 12.5294 28.8611 13.7095 26.2821C14.8506 23.7857 16.4332 21.5144 18.4149 19.534L18.6972 19.2566L18.9599 18.9877C20.9416 17.0073 23.2117 15.4233 25.7092 14.2847C28.2882 13.1023 31.2199 12.4271 34.1883 12.3298C37.1251 12.2361 40.1054 12.6849 43.0507 13.6644C43.4193 13.7848 43.7624 13.904 44.1175 14.033L47.6553 15.3808C48.4387 15.6703 49.2867 15.9769 50.2027 16.2641L50.4898 16.348C50.8559 16.4527 51.2343 16.5633 51.648 16.6449C51.913 16.6996 52.2027 16.758 52.5262 16.7908L52.6382 16.7994L52.654 16.7958C53.8122 16.8834 54.9423 16.466 55.7646 15.6425C57.3145 14.0927 57.3145 11.5696 55.7646 10.021Z" fill="#086788"/>
</g>
<defs>
<clipPath id="clip0_1605_147">
<rect width="57" height="57" fill="white" transform="translate(0 0.5)"/>
</clipPath>
</defs>
</svg>
